<?xml version="1.0" encoding="UTF-8" standalone="no"?>
<svg
   xmlns:dc="http://purl.org/dc/elements/1.1/"
   xmlns:cc="http://creativecommons.org/ns#"
   xmlns:rdf="http://www.w3.org/1999/02/22-rdf-syntax-ns#"
   xmlns:svg="http://www.w3.org/2000/svg"
   xmlns="http://www.w3.org/2000/svg"
   xmlns:sodipodi="http://sodipodi.sourceforge.net/DTD/sodipodi-0.dtd"
   xmlns:inkscape="http://www.inkscape.org/namespaces/inkscape"
   sodipodi:docname="logo-mono.svg"
   inkscape:version="1.0beta2 (2b71d25, 2019-12-03)"
   id="svg8"
   version="1.1"
   viewBox="0 0 44 10"
   height="10mm"
   width="44mm">
  <defs
     id="defs2" />
  <sodipodi:namedview
     inkscape:window-maximized="0"
     inkscape:window-y="23"
     inkscape:window-x="0"
     inkscape:window-height="855"
     inkscape:window-width="1440"
     showgrid="false"
     inkscape:document-rotation="0"
     inkscape:current-layer="layer1"
     inkscape:document-units="mm"
     inkscape:cy="128.34458"
     inkscape:cx="188.6058"
     inkscape:zoom="2.2257308"
     inkscape:pageshadow="2"
     inkscape:pageopacity="0.0"
     borderopacity="1.0"
     bordercolor="#666666"
     pagecolor="#ffffff"
     id="base" />
  <metadata
     id="metadata5">
    <rdf:RDF>
      <cc:Work
         rdf:about="">
        <dc:format>image/svg+xml</dc:format>
        <dc:type
           rdf:resource="http://purl.org/dc/dcmitype/StillImage" />
        <dc:title></dc:title>
      </cc:Work>
    </rdf:RDF>
  </metadata>
  <g
     id="layer1"
     inkscape:groupmode="layer"
     inkscape:label="Layer 1">
    <rect
       y="0"
       x="0"
       height="10"
       width="10"
       id="rect833"
       style="fill:#000000;fill-opacity:1;stroke:none;stroke-width:0.0414556" />
    <circle
       style="fill:#000000;fill-opacity:1;stroke:none;stroke-width:0.205649"
       id="path880"
       cx="17"
       cy="5"
       r="5" />
    <path
       inkscape:connector-curvature="0"
       d="M 33.990061,10 33.995261,9.99477 24,0 v 9.999966 z"
       style="fill:#000000;fill-opacity:1;stroke:none;stroke-width:0.0415229"
       id="rect833-1-6-9" />
    <path
       inkscape:connector-curvature="0"
       d="M 38.980059,9.6432493e-6 A 5,5 0 0 0 34,4.9997043 5,5 0 0 0 38.999694,9.9999159 5,5 0 0 0 43.999906,4.9997043 5,5 0 0 0 38.999694,9.6432493e-6 a 5,5 0 0 0 -0.01964,0 z M 38.999699,2.8194757 A 2.1802361,2.1802361 0 0 1 41.18044,4.9997043 2.1802361,2.1802361 0 0 1 38.999694,7.1799331 2.1802361,2.1802361 0 0 1 36.819466,4.9997043 2.1802361,2.1802361 0 0 1 38.999694,2.8194757 Z"
       style="fill:#000000;fill-opacity:1;stroke:none;stroke-width:0.205649"
       id="path880-6" />
  </g>
</svg>
