<?xml version="1.0" standalone="no"?>
<svg xmlns="http://www.w3.org/2000/svg" xmlns:xlink="http://www.w3.org/1999/xlink" height="200px" width="200px">
  <defs>
    <pattern id="doodad" width="50" height="50" viewBox="0 0 40 40" patternUnits="userSpaceOnUse" patternTransform="">
      <rect width="100%" height="100%" fill="#ffec99"/>
      <path d="M20 5a 20 20 0 0 1 40 0h10a 10 10 0 0 1-20 0a 10 10 0 0 0-20 0a 10 10 0 0 1-20 0a 10 10 0 0 0-20 0h-10a 20 20 0 0 1 40 0z" fill="#ffe066"/>
      <path d="M0 25a 20 20 0 0 1 40 0h10a 10 10 0 0 1-20 0a 10 10 0 0 0-20 0a 10 10 0 0 1-20 0z" fill="#ffd43b"/>
      <path d="M20 45a 20 20 0 0 1 40 0h10a 10 10 0 0 1-20 0a 10 10 0 0 0-20 0a 10 10 0 0 1-20 0a 10 10 0 0 0-20 0h-10a 20 20 0 0 1 40 0z" fill="#ffe066"/>
    </pattern>
  </defs>
  <rect fill="url(#doodad)" height="200%" width="200%"/>
</svg>
